<svg xmlns="http://www.w3.org/2000/svg" xmlns:xlink="http://www.w3.org/1999/xlink" width="233.224" height="80.213" viewBox="0 0 233.224 80.213">
  <defs>
    <filter id="Rectangle_17" x="0" y="0" width="233.224" height="80.213" filterUnits="userSpaceOnUse">
      <feOffset dy="6" input="SourceAlpha"/>
      <feGaussianBlur stdDeviation="3" result="blur"/>
      <feFlood flood-opacity="0.161"/>
      <feComposite operator="in" in2="blur"/>
      <feComposite in="SourceGraphic"/>
    </filter>
  </defs>
  <g id="Apple" transform="translate(9 3)">
    <g id="Group_12" data-name="Group 12" transform="translate(0 0)">
      <g transform="matrix(1, 0, 0, 1, -9, -3)" filter="url(#Rectangle_17)">
        <path id="Rectangle_17-2" data-name="Rectangle 17" d="M16.6,0H198.621a16.6,16.6,0,0,1,16.6,16.6V45.61a16.6,16.6,0,0,1-16.6,16.6H16.6A16.6,16.6,0,0,1,0,45.611V16.6A16.6,16.6,0,0,1,16.6,0Z" transform="translate(9 3)" fill="#fff"/>
      </g>
    </g>
    <g id="Group_13" data-name="Group 13" transform="translate(77.035 14.252)">
      <path id="Path_20" data-name="Path 20" d="M-86.525,340.063l-.705,2.322h-1.543l2.625-8.192h1.908l2.662,8.192h-1.6l-.741-2.322Zm2.346-1.13-.644-2.018c-.158-.5-.292-1.057-.413-1.531h-.024c-.122.474-.243,1.045-.389,1.531l-.632,2.018Z" transform="translate(88.773 -333.743)" fill="#727272"/>
      <path id="Path_21" data-name="Path 21" d="M-64.589,340.758l.96,3c.17.522.292,1,.4,1.483h.036c.11-.486.243-.948.4-1.483l.948-3h1.568l-2.26,5.919h-1.471l-2.2-5.919Z" transform="translate(74.018 -338.036)" fill="#727272"/>
      <path id="Path_22" data-name="Path 22" d="M-41.3,345a7.976,7.976,0,0,0,.1,1.422h-1.349l-.109-.656h-.037a2.164,2.164,0,0,1-1.75.79A1.757,1.757,0,0,1-46.3,344.8c0-1.483,1.325-2.248,3.512-2.236v-.1c0-.389-.158-1.033-1.2-1.033a3.134,3.134,0,0,0-1.592.438l-.291-.973a4.267,4.267,0,0,1,2.139-.522,2.217,2.217,0,0,1,2.443,2.5Zm-1.458-1.471c-1.057-.012-2.066.207-2.066,1.106a.784.784,0,0,0,.851.851,1.228,1.228,0,0,0,1.179-.815,1.009,1.009,0,0,0,.036-.328Z" transform="translate(61.006 -337.784)" fill="#727272"/>
      <path id="Path_23" data-name="Path 23" d="M-25.156,335.248a.792.792,0,0,1-.827-.8.8.8,0,0,1,.839-.814.8.8,0,0,1,.839.814.8.8,0,0,1-.839.8Zm-.741,6.77V336.1H-24.4v5.919Z" transform="translate(47.72 -333.377)" fill="#727272"/>
      <path id="Path_24" data-name="Path 24" d="M-15.207,332.894h1.495v8.641h-1.495Z" transform="translate(40.674 -332.894)" fill="#727272"/>
      <path id="Path_25" data-name="Path 25" d="M-.829,345a8.082,8.082,0,0,0,.1,1.422H-2.082l-.109-.656h-.037a2.162,2.162,0,0,1-1.75.79A1.757,1.757,0,0,1-5.837,344.8c0-1.483,1.325-2.248,3.512-2.236v-.1c0-.389-.157-1.033-1.2-1.033a3.132,3.132,0,0,0-1.592.438l-.292-.973a4.268,4.268,0,0,1,2.139-.522,2.217,2.217,0,0,1,2.443,2.5Zm-1.459-1.471c-1.057-.012-2.066.207-2.066,1.106a.784.784,0,0,0,.851.851,1.226,1.226,0,0,0,1.178-.815,1,1,0,0,0,.037-.328Z" transform="translate(34.548 -337.784)" fill="#727272"/>
      <path id="Path_26" data-name="Path 26" d="M14.64,332.894h1.495v3.537h.024a2.143,2.143,0,0,1,1.9-.948c1.446,0,2.479,1.2,2.467,3,0,2.127-1.349,3.184-2.686,3.184a2.038,2.038,0,0,1-1.872-1.021h-.024l-.073.888H14.592c.024-.4.048-1.057.048-1.653Zm1.495,6.2a1.629,1.629,0,0,0,.037.352A1.365,1.365,0,0,0,17.5,340.49c.936,0,1.507-.742,1.507-1.945,0-1.045-.5-1.9-1.495-1.9a1.389,1.389,0,0,0-1.324,1.094,1.768,1.768,0,0,0-.049.389Z" transform="translate(21.191 -332.894)" fill="#727272"/>
      <path id="Path_27" data-name="Path 27" d="M36.807,332.894H38.3v8.641H36.807Z" transform="translate(6.667 -332.894)" fill="#727272"/>
      <path id="Path_28" data-name="Path 28" d="M47.717,343.885a1.607,1.607,0,0,0,1.822,1.531,4.762,4.762,0,0,0,1.641-.268l.219,1.021a5.322,5.322,0,0,1-2.066.377,2.8,2.8,0,0,1-3.051-2.99,2.931,2.931,0,0,1,2.893-3.184c1.92,0,2.552,1.58,2.552,2.88a3.792,3.792,0,0,1-.048.633Zm2.6-1.046a1.272,1.272,0,0,0-1.227-1.446,1.462,1.462,0,0,0-1.373,1.446Z" transform="translate(0.472 -337.784)" fill="#727272"/>
      <path id="Path_29" data-name="Path 29" d="M77.713,346.559a2.862,2.862,0,0,1-2.966-3.051,2.922,2.922,0,0,1,3.063-3.135,2.839,2.839,0,0,1,2.941,3.038,2.929,2.929,0,0,1-3.026,3.148Zm.048-1.082c.85,0,1.446-.826,1.446-2.029,0-.924-.414-1.993-1.434-1.993-1.058,0-1.483,1.033-1.483,2.018,0,1.142.572,2.005,1.459,2.005Z" transform="translate(-18.139 -337.784)" fill="#727272"/>
      <path id="Path_30" data-name="Path 30" d="M97.084,342.269c0-.681-.025-1.252-.049-1.762h1.3l.073.887h.036a2.173,2.173,0,0,1,1.9-1.021c1.032,0,2.1.668,2.1,2.54v3.513h-1.495v-3.342c0-.851-.316-1.5-1.131-1.5a1.254,1.254,0,0,0-1.166.875,1.384,1.384,0,0,0-.073.474v3.488H97.084Z" transform="translate(-32.711 -337.784)" fill="#727272"/>
      <path id="Path_31" data-name="Path 31" d="M128.193,336.37v1.519h1.422v1.118h-1.422v2.6c0,.729.195,1.094.766,1.094a1.939,1.939,0,0,0,.583-.061l.025,1.13a3.279,3.279,0,0,1-1.082.158,1.711,1.711,0,0,1-1.288-.486,2.33,2.33,0,0,1-.474-1.665v-2.771h-.838v-1.118h.838v-1.106Z" transform="translate(-51.573 -335.167)" fill="#727272"/>
      <path id="Path_32" data-name="Path 32" d="M141.469,332.894h1.495v3.524h.024a1.964,1.964,0,0,1,.742-.668,2.106,2.106,0,0,1,1.033-.267c1.008,0,2.066.668,2.066,2.564v3.488h-1.495v-3.33c0-.851-.316-1.508-1.143-1.508a1.247,1.247,0,0,0-1.166.839,1.34,1.34,0,0,0-.061.45v3.549h-1.495Z" transform="translate(-61.763 -332.894)" fill="#727272"/>
      <path id="Path_33" data-name="Path 33" d="M163.433,343.885a1.607,1.607,0,0,0,1.822,1.531,4.762,4.762,0,0,0,1.641-.268l.219,1.021a5.319,5.319,0,0,1-2.066.377,2.8,2.8,0,0,1-3.051-2.99,2.931,2.931,0,0,1,2.893-3.184c1.92,0,2.552,1.58,2.552,2.88a3.793,3.793,0,0,1-.048.633Zm2.6-1.046a1.272,1.272,0,0,0-1.227-1.446,1.462,1.462,0,0,0-1.373,1.446Z" transform="translate(-75.185 -337.784)" fill="#727272"/>
    </g>
    <g id="Group_16" data-name="Group 16" transform="translate(38.881 13.772)">
      <g id="Group_14" data-name="Group 14" transform="translate(0 0)">
        <path id="Path_34" data-name="Path 34" d="M-177.178,363.194a7.29,7.29,0,0,1,3.473-6.118,7.463,7.463,0,0,0-5.883-3.181c-2.474-.26-4.874,1.483-6.133,1.483-1.285,0-3.231-1.456-5.32-1.414a7.837,7.837,0,0,0-6.592,4.021c-2.849,4.935-.725,12.187,2.005,16.177,1.367,1.953,2.963,4.135,5.053,4.057,2.044-.085,2.806-1.3,5.274-1.3,2.445,0,3.162,1.3,5.293,1.253,2.193-.036,3.573-1.962,4.891-3.934a16.072,16.072,0,0,0,2.239-4.558,7.046,7.046,0,0,1-4.3-6.483" transform="translate(198.985 -346.128)" fill="#727272"/>
        <path id="Path_35" data-name="Path 35" d="M-156.7,336.651a7.163,7.163,0,0,0,1.642-5.144,7.3,7.3,0,0,0-4.724,2.446,6.827,6.827,0,0,0-1.687,4.954,6.04,6.04,0,0,0,4.77-2.256" transform="translate(174.483 -331.507)" fill="#727272"/>
      </g>
      <g id="Group_15" data-name="Group 15" transform="translate(37.261 14.828)">
        <path id="Path_36" data-name="Path 36" d="M-77.262,391.752h-2.847l-1.561-4.9h-5.421l-1.488,4.9h-2.773l5.376-16.691h3.315Zm-4.877-6.961-1.41-4.358q-.227-.666-.843-3.143h-.049q-.249,1.066-.794,3.143l-1.387,4.358Z" transform="translate(91.351 -374.812)" fill="#727272"/>
        <path id="Path_37" data-name="Path 37" d="M-32.622,393.908a6.84,6.84,0,0,1-1.659,4.854,4.851,4.851,0,0,1-3.688,1.584,3.694,3.694,0,0,1-3.419-1.708h-.047v6.339h-2.676V392q0-1.93-.1-3.962h2.352l.149,1.907h.051a4.454,4.454,0,0,1,4.06-2.155,4.468,4.468,0,0,1,3.553,1.685,6.637,6.637,0,0,1,1.424,4.431m-2.724.1a4.969,4.969,0,0,0-.792-2.9,2.741,2.741,0,0,0-2.326-1.189,2.777,2.777,0,0,0-1.8.656,3.053,3.053,0,0,0-1.053,1.724,3.463,3.463,0,0,0-.123.815v2.008a3.212,3.212,0,0,0,.8,2.215,2.669,2.669,0,0,0,2.094.9,2.729,2.729,0,0,0,2.352-1.162,5.114,5.114,0,0,0,.843-3.072" transform="translate(60.53 -383.135)" fill="#727272"/>
        <path id="Path_38" data-name="Path 38" d="M7.364,393.908a6.836,6.836,0,0,1-1.66,4.854,4.847,4.847,0,0,1-3.689,1.584A3.69,3.69,0,0,1-1.4,398.638h-.049v6.339H-4.124V392q0-1.93-.1-3.962h2.351l.15,1.907h.051a4.446,4.446,0,0,1,4.059-2.155,4.471,4.471,0,0,1,3.554,1.685,6.637,6.637,0,0,1,1.421,4.431m-2.722.1a4.955,4.955,0,0,0-.794-2.9,2.738,2.738,0,0,0-2.327-1.189,2.781,2.781,0,0,0-1.8.656A3.049,3.049,0,0,0-1.324,392.3a3.375,3.375,0,0,0-.125.815v2.008a3.2,3.2,0,0,0,.8,2.215,2.662,2.662,0,0,0,2.094.9A2.732,2.732,0,0,0,3.8,397.078a5.141,5.141,0,0,0,.843-3.072" transform="translate(34.385 -383.135)" fill="#727272"/>
        <path id="Path_39" data-name="Path 39" d="M54.4,386.6a4.443,4.443,0,0,1-1.484,3.467,6.564,6.564,0,0,1-4.545,1.461,7.977,7.977,0,0,1-4.328-1.039l.62-2.229a7.333,7.333,0,0,0,3.867,1.064,3.658,3.658,0,0,0,2.355-.68,2.232,2.232,0,0,0,.84-1.824,2.33,2.33,0,0,0-.692-1.711,6.454,6.454,0,0,0-2.306-1.291q-4.383-1.638-4.381-4.787a4.232,4.232,0,0,1,1.535-3.372,6.061,6.061,0,0,1,4.086-1.317,8.11,8.11,0,0,1,3.788.793l-.667,2.18a6.59,6.59,0,0,0-3.2-.767,3.227,3.227,0,0,0-2.2.693,1.988,1.988,0,0,0-.667,1.511,2.033,2.033,0,0,0,.766,1.633,8.635,8.635,0,0,0,2.427,1.29,8.245,8.245,0,0,1,3.17,2.029,4.258,4.258,0,0,1,1.015,2.9" transform="translate(2.827 -374.341)" fill="#727272"/>
        <path id="Path_40" data-name="Path 40" d="M85.651,384.851H82.7V390.7q0,2.229,1.561,2.228a4.834,4.834,0,0,0,1.187-.123l.073,2.03a6.011,6.011,0,0,1-2.078.3,3.2,3.2,0,0,1-2.476-.964,4.745,4.745,0,0,1-.892-3.245v-6.068H78.321v-2.007h1.758v-2.2l2.625-.794v3h2.947Z" transform="translate(-19.583 -377.942)" fill="#727272"/>
        <path id="Path_41" data-name="Path 41" d="M115.649,393.958a6.6,6.6,0,0,1-1.584,4.557,5.658,5.658,0,0,1-4.408,1.831,5.381,5.381,0,0,1-4.223-1.758,6.394,6.394,0,0,1-1.573-4.43,6.532,6.532,0,0,1,1.622-4.581,5.6,5.6,0,0,1,4.37-1.785,5.5,5.5,0,0,1,4.26,1.758,6.341,6.341,0,0,1,1.536,4.408m-2.775.086a5.419,5.419,0,0,0-.719-2.855,2.64,2.64,0,0,0-2.4-1.441,2.679,2.679,0,0,0-2.452,1.441,5.523,5.523,0,0,0-.716,2.907,5.411,5.411,0,0,0,.716,2.854,2.7,2.7,0,0,0,2.429,1.44,2.668,2.668,0,0,0,2.4-1.465,5.42,5.42,0,0,0,.743-2.881" transform="translate(-36.283 -383.135)" fill="#727272"/>
        <path id="Path_42" data-name="Path 42" d="M150.857,390.391a4.781,4.781,0,0,0-.841-.073,2.536,2.536,0,0,0-2.181,1.066,4.015,4.015,0,0,0-.667,2.376v6.315H144.5l.023-8.245q0-2.081-.1-3.79h2.328l.1,2.3h.072a4.119,4.119,0,0,1,1.338-1.907,3.238,3.238,0,0,1,1.933-.645,4.4,4.4,0,0,1,.667.047Z" transform="translate(-62.8 -383.135)" fill="#727272"/>
        <path id="Path_43" data-name="Path 43" d="M177.359,393.441a6.493,6.493,0,0,1-.1,1.214h-8.022a3.5,3.5,0,0,0,1.162,2.726,3.971,3.971,0,0,0,2.625.839,8.884,8.884,0,0,0,3.243-.568l.42,1.858a10.063,10.063,0,0,1-4.037.744,5.837,5.837,0,0,1-4.394-1.648,6.088,6.088,0,0,1-1.6-4.421,6.9,6.9,0,0,1,1.487-4.533,5.121,5.121,0,0,1,4.207-1.93,4.489,4.489,0,0,1,3.942,1.93,6.513,6.513,0,0,1,1.06,3.79m-2.55-.694a3.62,3.62,0,0,0-.518-2.055,2.341,2.341,0,0,0-2.132-1.115,2.543,2.543,0,0,0-2.128,1.09,3.956,3.956,0,0,0-.79,2.079Z" transform="translate(-77.343 -383.09)" fill="#727272"/>
      </g>
    </g>
  </g>
</svg>
